<svg width="200" height="240" viewBox="0 0 200 240" xmlns="http://www.w3.org/2000/svg">
  <rect x="40" y="20" width="120" height="140" rx="2" fill="none" stroke="#3B82F6" stroke-width="1.5"/>
  <line x1="52" y1="70" x2="148" y2="70" stroke="#3B82F6" stroke-width="1" opacity="0.4"/>
  <line x1="52" y1="100" x2="148" y2="100" stroke="#3B82F6" stroke-width="1" opacity="0.4"/>
  <line x1="52" y1="130" x2="148" y2="130" stroke="#3B82F6" stroke-width="1" opacity="0.4"/>
  <rect x="56" y="54" width="14" height="16" fill="#3B82F6" opacity="0.9"/>
  <rect x="73" y="56" width="10" height="14" fill="#3B82F6" opacity="0.6"/>
  <rect x="86" y="53" width="18" height="17" fill="#3B82F6" opacity="0.8"/>
  <rect x="107" y="55" width="12" height="15" fill="#3B82F6" opacity="0.5"/>
  <rect x="122" y="54" width="8" height="16" fill="#3B82F6" opacity="0.7"/>
  <rect x="133" y="55" width="14" height="15" fill="#3B82F6" opacity="0.45"/>
  <rect x="56" y="84" width="18" height="16" fill="#3B82F6" opacity="0.5"/>
  <rect x="77" y="86" width="10" height="14" fill="#3B82F6" opacity="0.85"/>
  <rect x="90" y="83" width="14" height="17" fill="#3B82F6" opacity="0.65"/>
  <rect x="107" y="85" width="8" height="15" fill="#3B82F6" opacity="0.9"/>
  <rect x="118" y="83" width="16" height="17" fill="#3B82F6" opacity="0.55"/>
  <rect x="137" y="85" width="10" height="15" fill="#3B82F6" opacity="0.75"/>
  <rect x="56" y="114" width="12" height="16" fill="#3B82F6" opacity="0.7"/>
  <rect x="71" y="116" width="16" height="14" fill="#3B82F6" opacity="0.5"/>
  <rect x="90" y="113" width="10" height="17" fill="#3B82F6" opacity="0.88"/>
  <rect x="103" y="115" width="14" height="15" fill="#3B82F6" opacity="0.6"/>
  <rect x="120" y="114" width="8" height="16" fill="#3B82F6" opacity="0.75"/>
  <rect x="131" y="115" width="16" height="15" fill="#3B82F6" opacity="0.45"/>
  <line x1="85" y1="10" x2="95" y2="17" stroke="#60a5fa" stroke-width="2.5" stroke-linecap="round"/>
  <circle cx="100" cy="169" r="3" fill="#3B82F6"/>
  <text x="100" y="200" text-anchor="middle" font-family="'Crimson Pro', Georgia, serif" font-size="18" font-weight="400" font-style="italic" fill="#e2e8f0" letter-spacing="-0.01em">Biblioth<tspan fill="#3B82F6">è</tspan>que</text>
  <text x="100" y="218" text-anchor="middle" font-family="'DM Mono', monospace" font-size="7.5" fill="#475569" letter-spacing="0.18em">LIVING LIBRARY</text>
</svg>
